<svg xmlns="http://www.w3.org/2000/svg">
    <symbol id="gear" viewBox="0 0 20 20">
        <g stroke="none">
            <path fill-rule="evenodd" d="
                M 10 3.25 A 6.75 6.75 0 0 1 10 16.75 A 6.75 6.75 0 0 1 10 3.25 Z
                M 10 7.25 A 2.75 2.75 0 0 1 10 12.75 A 2.75 2.75 0 0 1 10 7.25 Z
            " />
            <g transform="rotate(0 10 10)">
                <rect x="8" y="0" width="4" height="5" rx="1.25" ry="1.25" />
                <rect x="15" y="8" width="5" height="4" rx="1.25" ry="1.25" />
                <rect x="8" y="15" width="4" height="5" rx="1.25" ry="1.25" />
                <rect x="0" y="8" width="5" height="4" rx="1.25" ry="1.25" />
            </g>
            <g transform="rotate(45 10 10)">
                <rect x="8" y="0" width="4" height="5" rx="1.25" ry="1.25" />
                <rect x="15" y="8" width="5" height="4" rx="1.25" ry="1.25" />
                <rect x="8" y="15" width="4" height="5" rx="1.25" ry="1.25" />
                <rect x="0" y="8" width="5" height="4" rx="1.25" ry="1.25" />
            </g>
        </g>
    </symbol>
    <symbol id="history" viewBox="0 0 20 20">
        <g stroke="inherit" stroke-width="1.5" fill="none">
            <path d="M 3 10 A 7 7 0 1 1 5.05 14.95" />
            <polyline points="10 6 10 10 12.5 12.5" />
        </g>
        <g stroke="none" fill="inherit">
            <polygon points="0 10 6 10 3 13" />
        </g>
    </symbol>
</svg>
