<svg xmlns="http://www.w3.org/2000/svg">
    <symbol id="nested-match-icon" viewBox="0 0 16 16">
        <circle cx="8" cy="4" r="0.8"/>

        <line x1="8" y1="4" x2="4" y2="8" stroke="inherit" stroke-width="1" />
        <circle cx="4" cy="8" r="0.8"/>
        <line x1="4" y1="8" x2="2" y2="12" stroke="inherit" stroke-width="1" />
        <circle cx="2" cy="12" r="0.8"/>
        <line x1="4" y1="8" x2="6" y2="12" stroke="inherit" stroke-width="1" />
        <circle cx="6" cy="12" r="0.8"/>

        <line x1="8" y1="4" x2="12" y2="8" stroke="inherit" stroke-width="1" />
        <circle cx="12" cy="8" r="0.8"/>
        <line x1="12" y1="8" x2="10" y2="12" stroke="inherit" stroke-width="1" />
        <circle cx="10" cy="12" r="0.8"/>
        <line x1="12" y1="8" x2="14" y2="12" stroke="inherit" stroke-width="1" />
        <circle cx="14" cy="12" r="0.8"/>
    </symbol>
    <symbol id="match-decomposition-icon" viewBox="-1 -1 17 17">
        <path fill-rule="evenodd" fill="inherit" stroke-width="0" d="
            M 5,1 L 10,1 L 10,6 L 5,6 Z
            M 6,5 L 9,5 L 9,2 L 6,2 Z
            M 7,6 L 8,6 L 8,8 L 7,8 Z
            M 2,8 L 13,8 L 13,9 L 2,9 Z
            M 2,9 L 3,9 L 3,11 L 2,11 Z
            M 7,9 L 8,9 L 8,11 L 7,11 Z
            M 12,9 L 13,9 L 13,11 L 12,11 Z
            M 1,11 L 4,11 L 4,14 L 1,14 Z
            M 2,12 L 3,12 L 3,13 L 2,13 Z
            M 6,11 L 9,11 L 9,14 L 6,14 Z
            M 7,12 L 8,12 L 8,13 L 7,13 Z
            M 11,11 L 14,11 L 14,14 L 11,14 Z
            M 12,12 L 13,12 L 13,13 L 12,13 Z
        " />
    </symbol>
    <symbol id="match-variants-icon" viewBox="0 0 16 16">
        <line x1="8" y1="8" x2="14" y2="5" stroke="inherit" stroke-width="1" />
        <line x1="14" y1="5" x2="10" y2="3" stroke="inherit" stroke-width="1" />
        <line x1="14" y1="5" x2="14" y2="9" stroke="inherit" stroke-width="1" />

        <line x1="8" y1="8" x2="2" y2="5" stroke="inherit" stroke-width="1" />
        <line x1="2" y1="5" x2="2" y2="9" stroke="inherit" stroke-width="1" />
        <line x1="2" y1="5" x2="6" y2="3" stroke="inherit" stroke-width="1" />

        <line x1="8" y1="8" x2="8" y2="14" stroke="inherit" stroke-width="1" />
        <line x1="8" y1="14" x2="12" y2="12" stroke="inherit" stroke-width="1" />
        <line x1="8" y1="14" x2="4" y2="12" stroke="inherit" stroke-width="1" />
    </symbol>
    <symbol id="case-sensitive-icon" viewBox="0 0 16 12">
        <path fill-rule="evenodd" fill="inherit" stroke-width="0" d="
            M 8.00800037384033,10.1277000904083
            C 8.00800037384033,10.1277000904083 7.11740016937256,7.77810001373291 7.11740016937256,7.77810001373291
            C 7.11740016937256,7.77810001373291 3.55539989471436,7.77810001373291 3.55539989471436,7.77810001373291
            C 3.55539989471436,7.77810001373291 2.71700000762939,10.1277000904083 2.71700000762939,10.1277000904083
            C 2.71700000762939,10.1277000904083 1.62230014801025,10.1277000904083 1.62230014801025,10.1277000904083
            C 1.62230014801025,10.1277000904083 4.8390998840332,1.72579979896545 4.8390998840332,1.72579979896545
            C 4.8390998840332,1.72579979896545 5.85910034179688,1.72579979896545 5.85910034179688,1.72579979896545
            C 5.85910034179688,1.72579979896545 9.09930038452148,10.1277000904083 9.09930038452148,10.1277000904083
            C 9.09930038452148,10.1277000904083 8.00800037384033,10.1277000904083 8.00800037384033,10.1277000904083
            Z
            M 5.47729969024658,3.31369972229004
            C 5.47729969024658,3.31369972229004 5.43330001831055,3.1784999370575 5.43330001831055,3.1784999370575
            C 5.43330001831055,3.1784999370575 5.3951997756958,3.02270007133484 5.3951997756958,3.02270007133484
            C 5.3951997756958,3.02270007133484 5.36639976501465,2.87079977989197 5.36639976501465,2.87079977989197
            C 5.36639976501465,2.87079977989197 5.34200000762939,2.74489974975586 5.34200000762939,2.74489974975586
            C 5.34200000762939,2.74489974975586 5.31910037994385,2.74489974975586 5.31910037994385,2.74489974975586
            C 5.31910037994385,2.74489974975586 5.29810047149658,2.87079977989197 5.29810047149658,2.87079977989197
            C 5.29810047149658,2.87079977989197 5.26630020141602,3.02270007133484 5.26630020141602,3.02270007133484
            C 5.26630020141602,3.02270007133484 5.22830009460449,3.1784999370575 5.22830009460449,3.1784999370575
            C 5.22830009460449,3.1784999370575 5.18430042266846,3.31369972229004 5.18430042266846,3.31369972229004
            C 5.18430042266846,3.31369972229004 3.87720012664795,6.88739991188049 3.87720012664795,6.88739991188049
            C 3.87720012664795,6.88739991188049 6.79510021209717,6.88739991188049 6.79510021209717,6.88739991188049
            C 6.79510021209717,6.88739991188049 5.47729969024658,3.31369972229004 5.47729969024658,3.31369972229004
            Z
            M 13.4167003631592,10.1277000904083
            C 13.4167003631592,10.1277000904083 13.4167003631592,9.19020009040833 13.4167003631592,9.19020009040833
            C 13.4167003631592,9.19020009040833 13.3943004608154,9.19020009040833 13.3943004608154,9.19020009040833
            C 13.1950998306274,9.54169964790344 12.9381999969482,9.80929970741272 12.62380027771,9.99579977989197
            C 12.3083000183105,10.1823999881744 11.9498996734619,10.2742002010345 11.5475997924805,10.2742002010345
            C 11.2350997924805,10.2742002010345 10.9596996307373,10.229199886322 10.7223997116089,10.1384003162384
            C 10.4841003417969,10.0485999584198 10.2839002609253,9.92650008201599 10.12380027771,9.77220010757446
            C 9.96360015869141,9.61890006065369 9.84249973297119,9.43429970741272 9.76049995422363,9.22140026092529
            C 9.67940044403076,9.00850009918213 9.63739967346191,8.78000020980835 9.63739967346191,8.53390002250671
            C 9.63739967346191,8.27220010757446 9.67650032043457,8.03200006484985 9.75459957122803,7.81319975852966
            C 9.8326997756958,7.59349966049194 9.95189952850342,7.40110015869141 10.1140003204346,7.23320031166077
            C 10.2761001586914,7.0652003288269 10.4812002182007,6.92459964752197 10.7292003631592,6.81319999694824
            C 10.9772996902466,6.70289969444275 11.2732000350952,6.62380027770996 11.6178998947144,6.57690024375916
            C 11.6178998947144,6.57690024375916 13.4285001754761,6.32489991188049 13.4285001754761,6.32489991188049
            C 13.4285001754761,6.05149984359741 13.3992004394531,5.81759977340698 13.3406000137329,5.62479972839355
            C 13.2810001373291,5.43190026283264 13.1969995498657,5.27369999885559 13.0886001586914,5.15260004997253
            C 12.9792003631592,5.03150010108948 12.8473997116089,4.94260025024414 12.692099571228,4.88549995422363
            C 12.5377998352051,4.82890033721924 12.3678998947144,4.80049967765808 12.1794004440308,4.80049967765808
            C 11.8161001205444,4.80049967765808 11.4656000137329,4.86450004577637 11.1276998519897,4.99389982223511
            C 10.7897996902466,5.12280035018921 10.4890003204346,5.30349969863892 10.2234001159668,5.53390002250671
            C 10.2234001159668,5.53390002250671 10.2234001159668,4.54960012435913 10.2234001159668,4.54960012435913
            C 10.3053998947144,4.4909999370575 10.4187002182007,4.42850017547607 10.5661001205444,4.36160016059875
            C 10.7136001586914,4.29470014572144 10.8776998519897,4.23360013961792 11.06130027771,4.17649984359741
            C 11.2448997497559,4.11990022659302 11.4392004013062,4.07250022888184 11.6443004608154,4.03589987754822
            C 11.8493003845215,3.99880027770996 12.0515003204346,3.97970008850098 12.2506999969482,3.97970008850098
            C 12.9490003585815,3.97970008850098 13.4792003631592,4.17360019683838 13.8386001586914,4.56270003318787
            C 14.1969995498657,4.95190000534058 14.3776998519897,5.50460028648376 14.3776998519897,6.22390007972717
            C 14.3776998519897,6.22390007972717 14.3776998519897,10.1257002353668 14.3776998519897,10.1257002353668
            C 14.3776998519897,10.1257002353668 13.4167003631592,10.1257002353668 13.4167003631592,10.1257002353668
            C 13.4167003631592,10.1257002353668 13.4167003631592,10.1277000904083 13.4167003631592,10.1277000904083
            Z
            M 11.9636001586914,7.29759979248047
            C 11.6901998519897,7.33279967308044 11.4656000137329,7.38260006904602 11.2897996902466,7.44600033760071
            C 11.1129999160767,7.51049995422363 10.976300239563,7.59060001373291 10.879599571228,7.6842999458313
            C 10.7819995880127,7.77610015869141 10.7136001586914,7.8884003162384 10.6765003204346,8.01830005645752
            C 10.6403999328613,8.14719986915588 10.6218004226685,8.2936999797821 10.6218004226685,8.45779967308044
            C 10.6218004226685,8.59840035438538 10.6471996307373,8.72919988632202 10.6979999542236,8.85029983520508
            C 10.74880027771,8.97339963912964 10.8219995498657,9.07789993286133 10.9187002182007,9.16669964790344
            C 11.0143995285034,9.25560021400452 11.1335000991821,9.326899766922 11.2750997543335,9.37770009040833
            C 11.4167003631592,9.42849969863892 11.5826997756958,9.45389986038208 11.7701997756958,9.45389986038208
            C 12.0123996734619,9.45389986038208 12.2350997924805,9.40890026092529 12.4381999969482,9.31909990310669
            C 12.641300201416,9.2292001247406 12.8161001205444,9.10419988632202 12.9617004394531,8.94600033760071
            C 13.108099937439,8.78880000114441 13.2234001159668,8.60229992866516 13.3053998947144,8.389399766922
            C 13.3873996734619,8.17650032043457 13.4285001754761,7.94799971580505 13.4285001754761,7.70190024375916
            C 13.4285001754761,7.70190024375916 13.4285001754761,7.09250020980835 13.4285001754761,7.09250020980835
            C 13.4285001754761,7.09250020980835 11.9636001586914,7.29759979248047 11.9636001586914,7.29759979248047
            Z
        " />
    </symbol>
    <symbol id="whole-word-icon" viewBox="0 0 18 14">
        <path fill-rule="evenodd" fill="inherit" stroke-width="0" d="
            M 14.0470998287201,3.00440037250519
            C 14.0470998287201,3.00440037250519 15.0471003055573,3.00440037250519 15.0471003055573,3.00440037250519
            C 15.0471003055573,3.00440037250519 15.0471003055573,11.004399895668 15.0471003055573,11.004399895668
            C 15.0471003055573,11.004399895668 14.0470998287201,11.004399895668 14.0470998287201,11.004399895668
            C 14.0470998287201,11.004399895668 14.0470998287201,3.00440037250519 14.0470998287201,3.00440037250519
            Z
            M 12.2716995477676,7.39160025119781
            C 12.1936000585556,7.09230017662048 12.0725004673004,6.82959973812103 11.9122996330261,6.60549998283386
            C 11.75119972229,6.38140022754669 11.5470997095108,6.20459961891174 11.3030004501343,6.07519996166229
            C 11.0588003396988,5.94630014896393 10.7697998285294,5.88230001926422 10.437700510025,5.88230001926422
            C 10.2385003566742,5.88230001926422 10.0568997859955,5.90630006790161 9.88990008831024,5.95560026168823
            C 9.73070025444031,6.0019998550415 9.57840013504028,6.07079982757568 9.43720006942749,6.16059994697571
            C 9.30099964141846,6.24849998950958 9.17840015888214,6.35599994659424 9.07200014591217,6.47850024700165
            C 9.07200014591217,6.47850024700165 8.89329957962036,6.73629987239838 8.89329957962036,6.73629987239838
            C 8.89329957962036,6.73629987239838 8.89329957962036,3.58250021934509 8.89329957962036,3.58250021934509
            C 8.89329957962036,3.58250021934509 8.00020015239716,3.58250021934509 8.00020015239716,3.58250021934509
            C 8.00020015239716,3.58250021934509 8.00020015239716,11.004399895668 8.00020015239716,11.004399895668
            C 8.00020015239716,11.004399895668 8.89329957962036,11.004399895668 8.89329957962036,11.004399895668
            C 8.89329957962036,11.004399895668 8.89329957962036,10.4291998147964 8.89329957962036,10.4291998147964
            C 8.89329957962036,10.4291998147964 9.01930010318756,10.604000210762 9.01930010318756,10.604000210762
            C 9.10620045661926,10.7065000534058 9.2081995010376,10.7944000959396 9.32300019264221,10.8734998703003
            C 9.44019985198975,10.951700091362 9.57250034809113,11.0132001638412 9.72089946269989,11.0590999126434
            C 9.87029957771301,11.1060001850128 10.0354002714157,11.1274000406265 10.2189996242523,11.1274000406265
            C 10.5724997520447,11.1274000406265 10.8849996328354,11.0562001466751 11.1565003395081,10.915500164032
            C 11.4279999732971,10.7719997167587 11.6544996500015,10.5776002407074 11.8381000757217,10.329599738121
            C 12.021700501442,10.0795998573303 12.1583998203278,9.78659999370575 12.2521998882294,9.44969975948334
            C 12.3450000286102,9.11179983615875 12.3928002119064,8.74760007858276 12.3928002119064,8.35399961471558
            C 12.3938001394272,8.02880024909973 12.3537000417709,7.70560026168823 12.2716995477676,7.39160025119781
            Z
            M 10.7932004928589,6.78469967842102
            C 10.9436005353928,6.85549986362457 11.0744000673294,6.96049976348877 11.1837998628616,7.09809970855713
            C 11.2921997308731,7.23829984664917 11.3772000074387,7.41159987449646 11.4376999139786,7.61570000648499
            C 11.488499879837,7.78960001468658 11.5198001861572,7.98679995536804 11.5276000499725,8.20260012149811
            C 11.5276000499725,8.20260012149811 11.5198001861572,8.32759964466095 11.5198001861572,8.32759964466095
            C 11.5198001861572,8.65480005741119 11.4865998029709,8.94779992103577 11.4201003313065,9.1957995891571
            C 11.3655002117157,9.41649973392487 11.2707002162933,9.62349963188171 11.14279961586,9.810999751091
            C 11.0255999565125,9.97220003604889 10.8820996284485,10.0952001810074 10.720899939537,10.1763001680374
            C 10.3987001180649,10.3384000062943 9.96119964122772,10.3423002958298 9.65259969234467,10.1918996572495
            C 9.50319957733154,10.1195999383926 9.36940026283264,10.0190001726151 9.25899946689606,9.89500033855438
            C 9.1662003993988,9.78560030460358 9.09249973297119,9.66260015964508 9.04119980335236,9.52779984474182
            C 9.04119980335236,9.52779984474182 8.86200034618378,9.08150041103363 8.86200034618378,8.58149981498718
            C 8.86200034618378,8.08150005340576 9.04119980335236,7.57960021495819 9.04119980335236,7.57960021495819
            C 9.10330045223236,7.40229976177216 9.17700004577637,7.26120007038116 9.26490032672882,7.14940011501312
            C 9.3791002035141,7.00640034675598 9.52120041847229,6.89010012149811 9.68970000743866,6.80420029163361
            C 9.8575998544693,6.71829962730408 10.0539000034332,6.67529964447021 10.2755995988846,6.67529964447021
            C 10.4659999608994,6.67529964447021 10.6399004459381,6.71239995956421 10.7932004928589,6.78469967842102
            Z
            M 2.03389978408813,1.00439965724945
            C 2.03389978408813,1.00439965724945 16.0470997095108,1.00439965724945 16.0470997095108,1.00439965724945
            C 16.0470997095108,1.00439965724945 16.0470997095108,2.02730023860931 16.0470997095108,2.02730023860931
            C 16.0470997095108,2.02730023860931 2.03389978408813,2.02730023860931 2.03389978408813,2.02730023860931
            C 2.03389978408813,2.02730023860931 2.03389978408813,1.00439965724945 2.03389978408813,1.00439965724945
            Z
            M 2.03389978408813,11.9721999168396
            C 2.03389978408813,11.9721999168396 16.0470997095108,11.9721999168396 16.0470997095108,11.9721999168396
            C 16.0470997095108,11.9721999168396 16.0470997095108,12.9956003427505 16.0470997095108,12.9956003427505
            C 16.0470997095108,12.9956003427505 2.03389978408813,12.9956003427505 2.03389978408813,12.9956003427505
            C 2.03389978408813,12.9956003427505 2.03389978408813,11.9721999168396 2.03389978408813,11.9721999168396
            Z
            M 3.03830015659332,11.0355997085571
            C 3.03830015659332,11.0355997085571 3.76629996299744,9.00440001487732 3.76629996299744,9.00440001487732
            C 3.76629996299744,9.00440001487732 5.98510050773621,9.00440001487732 5.98510050773621,9.00440001487732
            C 5.98510050773621,9.00440001487732 6.76290035247803,11.0355997085571 6.76290035247803,11.0355997085571
            C 6.76290035247803,11.0355997085571 7.84500002861023,11.0355997085571 7.84500002861023,11.0355997085571
            C 7.84500002861023,11.0355997085571 5.36009967327118,3.87740015983582 5.36009967327118,3.87740015983582
            C 5.36009967327118,3.87740015983582 4.41920006275177,3.87740015983582 4.41920006275177,3.87740015983582
            C 4.41920006275177,3.87740015983582 1.97829973697662,10.9634001255035 1.97829973697662,10.9634001255035
            C 1.97829973697662,10.9634001255035 1.9529002904892,11.0355997085571 1.9529002904892,11.0355997085571
            C 1.9529002904892,11.0355997085571 3.03830015659332,11.0355997085571 3.03830015659332,11.0355997085571
            Z
            M 4.86500036716461,5.42629992961884
            C 4.86500036716461,5.42629992961884 4.88690006732941,5.42629992961884 4.88690006732941,5.42629992961884
            C 4.88690006732941,5.42629992961884 5.80100011825562,8.17920005321503 5.80100011825562,8.17920005321503
            C 5.80100011825562,8.17920005321503 3.96020007133484,8.17920005321503 3.96020007133484,8.17920005321503
            C 3.96020007133484,8.17920005321503 4.86500036716461,5.42629992961884 4.86500036716461,5.42629992961884
            Z
        " />
    </symbol>
    <symbol id="use-regex-icon" viewBox="-0.6 -0.7 13.2 15.4">
        <path fill-rule="evenodd" fill="inherit" stroke-width="0" d="
            M 10.650399684906,5.51810026168823
            C 10.650399684906,5.51810026168823 7.87890028953552,5.78030002117157 7.87890028953552,5.78030002117157
            C 7.87890028953552,5.78030002117157 9.96479988098145,7.56840002536774 9.96479988098145,7.56840002536774
            C 9.96479988098145,7.56840002536774 8.37109994888306,8.95999979972839 8.37109994888306,8.95999979972839
            C 8.37109994888306,8.95999979972839 7.1699001789093,6.27779972553253 7.1699001789093,6.27779972553253
            C 7.1699001789093,6.27779972553253 5.96869969367981,8.95999979972839 5.96869969367981,8.95999979972839
            C 5.96869969367981,8.95999979972839 4.3856999874115,7.56840002536774 4.3856999874115,7.56840002536774
            C 4.3856999874115,7.56840002536774 6.46040010452271,5.78030002117157 6.46040010452271,5.78030002117157
            C 6.46040010452271,5.78030002117157 3.68939995765686,5.51810026168823 3.68939995765686,5.51810026168823
            C 3.68939995765686,5.51810026168823 4.3856999874115,3.39210033416748 4.3856999874115,3.39210033416748
            C 4.3856999874115,3.39210033416748 6.7435998916626,4.78419995307922 6.7435998916626,4.78419995307922
            C 6.7435998916626,4.78419995307922 6.14450025558472,1.99999988079071 6.14450025558472,1.99999988079071
            C 6.14450025558472,1.99999988079071 8.19729995727539,1.99999988079071 8.19729995727539,1.99999988079071
            C 8.19729995727539,1.99999988079071 7.59569978713989,4.78320026397705 7.59569978713989,4.78320026397705
            C 7.59569978713989,4.78320026397705 9.95510029792786,3.39109981060028 9.95510029792786,3.39109981060028
            C 9.95510029792786,3.39109981060028 10.650399684906,5.51810026168823 10.650399684906,5.51810026168823
            Z
            M 4.34960031509399,10.5
            C 4.34960031509399,11.3280997276306 3.67769980430603,12.0000001192093 2.84960031509399,12.0000001192093
            C 2.02150011062622,12.0000001192093 1.34960031509399,11.3280997276306 1.34960031509399,10.5
            C 1.34960031509399,9.67190027236938 2.02150011062622,8.99999988079071 2.84960031509399,8.99999988079071
            C 3.67769980430603,8.99999988079071 4.34960031509399,9.67190027236938 4.34960031509399,10.5
            Z
        " />
    </symbol>
</svg>
