<svg xmlns="http://www.w3.org/2000/svg">
    <symbol id="under-construction" viewBox="0 0 732 732">
        <path fill-rule="evenodd" fill="#FFC500" d="
            M 717.665515422821,346.010247945786
            C 717.665515422821,346.010247945786 385.984909057617,14.3301651477814 385.984909057617,14.3301651477814
            C 380.638197183609,8.98297333717346 373.527805566788,6.03856229782104 365.965313673019,6.03856229782104
            C 358.401905536652,6.03856229782104 351.29251742363,8.98297333717346 345.946285486221,14.3301651477814
            C 345.946285486221,14.3301651477814 14.3399384021759,345.959985494614 14.3399384021759,345.959985494614
            C 8.98929977416992,351.291033983231 6.04052567481995,358.383842468262 6.03367567062378,365.935034036636
            C 6.02691292762756,373.507342815399 8.97660326957703,380.631347179413 14.3399384021759,385.994158744812
            C 14.3399384021759,385.994158744812 346.014174699783,717.674372434616 346.014174699783,717.674372434616
            C 351.358399629593,723.018030166626 358.466827869415,725.961437702179 366.028796195984,725.961437702179
            C 373.593295097351,725.961437702179 380.704602956772,723.018030166626 386.053190946579,717.673325300217
            C 386.053190946579,717.673325300217 717.664599180222,386.043461322784 717.664599180222,386.043461322784
            C 723.018117427826,380.697752952576 725.966324329376,373.589324712753 725.966324329376,366.025960206985
            C 725.966324329376,358.463424682617 723.019120931625,351.355040073395 717.665515422821,346.010247945786
            Z
        " />
        <path fill-rule="evenodd" fill="#000000" d="
            M 721.198677778244,389.580114126205
            C 721.198677778244,389.580114126205 389.588403940201,721.209454536438 389.588403940201,721.209454536438
            C 383.294428110123,727.498543739319 374.928216934204,730.961460828781 366.028796195984,730.961460828781
            C 357.131382465363,730.961460828781 348.767614603043,727.498543739319 342.478481769562,721.209454536438
            C 342.478481769562,721.209454536438 10.8042018413544,389.529808044434 10.8042018413544,389.529808044434
            C 4.49560976028442,383.221259593964 1.02588629722595,374.840344905853 1.03369617462158,365.930191040039
            C 1.04202961921692,357.042026996613 4.51323652267456,348.692831754684 10.8075613975525,342.421456575394
            C 10.8075613975525,342.421456575394 342.4107234478,10.7949521541595 342.4107234478,10.7949521541595
            C 348.70120882988,4.50346326828003 357.066416501999,1.03853917121887 365.965313673019,1.03853917121887
            C 374.86381816864,1.03814649581909 383.229025840759,4.50346326828003 389.520034790039,10.7949521541595
            C 389.520034790039,10.7949521541595 721.199724912643,342.473638772964 721.199724912643,342.473638772964
            C 727.497627496719,348.761724472046 730.966303825378,357.126452207565 730.966303825378,366.025960206985
            C 730.966303825378,374.926777124405 727.497627496719,383.291548490524 721.198677778244,389.580114126205
            Z
            M 717.665515422821,346.010247945786
            C 717.665515422821,346.010247945786 385.984909057617,14.3301651477814 385.984909057617,14.3301651477814
            C 380.638197183609,8.98297333717346 373.527805566788,6.03856229782104 365.965313673019,6.03856229782104
            C 358.401905536652,6.03856229782104 351.29251742363,8.98297333717346 345.946285486221,14.3301651477814
            C 345.946285486221,14.3301651477814 14.3399384021759,345.959985494614 14.3399384021759,345.959985494614
            C 8.98929977416992,351.291033983231 6.04052567481995,358.383842468262 6.03367567062378,365.935034036636
            C 6.02691292762756,373.507342815399 8.97660326957703,380.631347179413 14.3399384021759,385.994158744812
            C 14.3399384021759,385.994158744812 346.014174699783,717.674372434616 346.014174699783,717.674372434616
            C 351.358399629593,723.018030166626 358.466827869415,725.961437702179 366.028796195984,725.961437702179
            C 373.593295097351,725.961437702179 380.704602956772,723.018030166626 386.053190946579,717.673325300217
            C 386.053190946579,717.673325300217 717.664599180222,386.043461322784 717.664599180222,386.043461322784
            C 723.018117427826,380.697752952576 725.966324329376,373.589324712753 725.966324329376,366.025960206985
            C 725.966324329376,358.463424682617 723.019120931625,351.355040073395 717.665515422821,346.010247945786
            Z
            M 383.363015413284,700.238013982773
            C 373.920001029968,709.681988239288 358.626995801926,709.681988239288 349.203004360199,700.238013982773
            C 349.203004360199,700.238013982773 32.1620349884033,383.222001314163 32.1620349884033,383.222001314163
            C 22.7379999160767,373.788018465042 22.7379999160767,358.479960680008 32.1620349884033,349.051998853683
            C 32.1620349884033,349.051998853683 349.193012952805,32.0299651622772 349.193012952805,32.0299651622772
            C 358.626995801926,22.5820205211639 373.920001029968,22.5820205211639 383.363015413284,32.0299651622772
            C 383.363015413284,32.0299651622772 700.394996881485,349.051998853683 700.394996881485,349.051998853683
            C 709.818028450012,358.479960680008 709.818028450012,373.788018465042 700.394996881485,383.222001314163
            C 700.394996881485,383.222001314163 383.363015413284,700.238013982773 383.363015413284,700.238013982773
            Z
            M 690.434000015259,353.318984270096
            C 690.434000015259,353.318984270096 379.085994958878,41.9910056591034 379.085994958878,41.9910056591034
            C 372.016005277634,34.9110245704651 360.540982961655,34.9210159778595 353.460958242416,41.9910056591034
            C 353.460958242416,41.9910056591034 42.1429710388184,353.318984270096 42.1429710388184,353.318984270096
            C 35.0629899501801,360.389977455139 35.0629899501801,371.869013786316 42.1429710388184,378.948994874954
            C 42.1429710388184,378.948994874954 353.460958242416,690.276973485947 353.460958242416,690.276973485947
            C 360.540982961655,697.34796667099 372.016005277634,697.337975263596 379.085994958878,690.276973485947
            C 379.085994958878,690.276973485947 538.485243558884,530.887978076935 538.485243558884,530.887978076935
            C 538.485243558884,530.887978076935 374.52498292923,530.887978076935 374.52498292923,530.887978076935
            C 374.52498292923,530.887978076935 389.856993913651,480.208985567093 414.330008268356,437.200994253159
            C 414.330008268356,437.200994253159 414.184020280838,437.030005931854 414.184020280838,437.030005931854
            C 414.184020280838,437.030005931854 344.652027368546,393.202021121979 344.652027368546,393.202021121979
            C 344.652027368546,393.202021121979 343.139005422592,395.619025468826 343.139005422592,395.619025468826
            C 343.139005422592,395.619025468826 359.212998390198,422.621000289917 359.212998390198,422.621000289917
            C 359.212998390198,422.621000289917 351.547014713287,530.887978076935 351.547014713287,530.887978076935
            C 351.547014713287,530.887978076935 330.023036241531,530.887978076935 330.023036241531,530.887978076935
            C 330.023036241531,530.887978076935 321.596004009247,445.979994535446 321.596004009247,445.979994535446
            C 321.596004009247,445.979994535446 277.620984077454,391.981018781662 277.620984077454,391.981018781662
            C 277.620984077454,391.981018781662 251.469020605087,530.887978076935 251.469020605087,530.887978076935
            C 251.469020605087,530.887978076935 226.972009420395,530.887978076935 226.972009420395,530.887978076935
            C 226.972009420395,530.887978076935 227.880005836487,317.367020845413 227.880005836487,317.367020845413
            C 227.880005836487,317.367020845413 238.157979011536,298.402020692825 238.157979011536,298.402020692825
            C 238.157979011536,298.402020692825 238.211993694305,298.25101518631 238.211993694305,298.25101518631
            C 238.211993694305,298.25101518631 207.870009183884,239.119990110397 207.870009183884,239.119990110397
            C 207.870009183884,239.119990110397 297.030012845993,193.631991863251 297.030012845993,193.631991863251
            C 297.030012845993,193.631991863251 342.885031700134,214.369005203247 342.885031700134,214.369005203247
            C 342.885031700134,214.369005203247 339.486033439636,218.108976602554 347.093988418579,229.101008176804
            C 352.210985183716,236.537014961243 363.461004495621,237.309014797211 350.716986179352,279.159006357193
            C 354.349975347519,307.659997701645 357.38701415062,375.141003370285 357.38701415062,375.141003370285
            C 357.38701415062,375.141003370285 442.172003030777,429.96001625061 442.172003030777,429.96001625061
            C 442.172003030777,429.96001625061 435.629027366638,405.687004566193 435.629027366638,405.687004566193
            C 449.251984119415,389.281026363373 464.544989347458,378.031007051468 480.843985319138,378.031007051468
            C 508.12899184227,378.031007051468 599.847973823547,446.590997457504 599.847973823547,446.590997457504
            C 599.847973823547,446.590997457504 599.847973823547,469.529174566269 599.847973823547,469.529174566269
            C 599.847973823547,469.529174566269 690.434000015259,378.948994874954 690.434000015259,378.948994874954
            C 697.503989696503,371.869013786316 697.503989696503,360.389977455139 690.434000015259,353.318984270096
            Z
            M 332.816005468369,361.039026260376
            C 332.816005468369,361.039026260376 327.973008871078,300.09200835228 327.973008871078,300.09200835228
            C 317.464971542358,316.22900390625 316.448989391327,320.398998498917 316.448989391327,320.398998498917
            C 316.448989391327,320.398998498917 320.081978559494,351.341994524002 320.081978559494,351.341994524002
            C 320.081978559494,351.341994524002 332.816005468369,361.039026260376 332.816005468369,361.039026260376
            Z
            M 268.831992387772,241.85000038147
            C 268.831992387772,241.85000038147 241.391006469727,251.170979976654 241.391006469727,251.170979976654
            C 241.391006469727,251.170979976654 252.289014101028,271.80101108551 252.289014101028,271.80101108551
            C 252.289014101028,271.80101108551 252.401013851166,272.152019262314 252.401013851166,272.152019262314
            C 252.401013851166,272.152019262314 268.831992387772,241.85000038147 268.831992387772,241.85000038147
            Z
            M 338.890999317169,197.821009397507
            C 318.997976303101,197.821009397507 302.860020875931,181.678996324539 302.860020875931,161.780999422073
            C 302.860020875931,141.87898850441 318.997976303101,125.74098944664 338.890999317169,125.74098944664
            C 358.793010234833,125.74098944664 374.915956735611,141.87898850441 374.915956735611,161.780999422073
            C 374.915956735611,181.678996324539 358.793010234833,197.821009397507 338.890999317169,197.821009397507
            Z
        " />
    </symbol>
    <symbol id="fisheye-symbol" viewBox="0 0 648 649">
        <path fill-rule="evenodd" d="
            M 323.986829280853,647.062966704369
            C 145.832575321198,647.062966704369 1.40996217727661,502.640334308147 1.40996217727661,324.486073970795
            C 1.40996217727661,146.331852316856 145.832575321198,1.90921992063522 323.986829280853,1.90921992063522
            C 502.141044616699,1.90921992063522 646.56369638443,146.331852316856 646.56369638443,324.486073970795
            C 646.56369638443,502.640334308147 502.141044616699,647.062966704369 323.986829280853,647.062966704369
            Z
            M 323.986481666565,45.2031171321869
            C 169.742953777313,45.2031171321869 44.7037382125854,170.242302894592 44.7037382125854,324.485841870308
            C 44.7037382125854,478.729419529438 169.742953777313,603.768605291843 323.986481666565,603.768605291843
            C 478.230048179626,603.768605291843 603.269225120544,478.729419529438 603.269225120544,324.485841870308
            C 603.269225120544,170.242302894592 478.230048179626,45.2031171321869 323.986481666565,45.2031171321869
            Z
            M 323.989803314209,535.597094774246
            C 207.396108627319,535.597094774246 112.878200054169,441.079200387001 112.878200054169,324.485493719578
            C 112.878200054169,207.891825735569 207.396108627319,113.373892664909 323.989803314209,113.373892664909
            C 440.583459377289,113.373892664909 535.101406574249,207.891825735569 535.101406574249,324.485493719578
            C 535.101406574249,441.079200387001 440.583459377289,535.597094774246 323.989803314209,535.597094774246
            Z
        " />
    </symbol>
    <symbol id="shelf-symbol" viewBox="0 0 12 16">
        <g>
            <rect x="0" y="3" width="12" height="2" rx="0.5" ry="0.5" />
            <rect x="0" y="7" width="12" height="2" rx="0.5" ry="0.5" />
            <rect x="0" y="11" width="12" height="2" rx="0.5" ry="0.5" />
        </g>
    </symbol>
</svg>
