<svg xmlns="http://www.w3.org/2000/svg">
    <symbol id="app-color-icon" viewBox="0 0 930 930">
        <path fill-rule="evenodd" fill="white" d="
            M 852.087103128433,928.327496051788
            C 852.087103128433,928.327496051788 77.9147815704346,928.327496051788 77.9147815704346,928.327496051788
            C 35.8750212192535,928.327496051788 1.67250394821167,894.124978780746 1.67250394821167,852.085218429565
            C 1.67250394821167,852.085218429565 1.67250394821167,77.9147815704346 1.67250394821167,77.9147815704346
            C 1.67250394821167,35.8750212192535 35.8750212192535,1.67250394821167 77.9147815704346,1.67250394821167
            C 77.9147815704346,1.67250394821167 852.087103128433,1.67250394821167 852.087103128433,1.67250394821167
            C 894.124978780746,1.67250394821167 928.327496051788,35.8750212192535 928.327496051788,77.9147815704346
            C 928.327496051788,77.9147815704346 928.327496051788,852.085218429565 928.327496051788,852.085218429565
            C 928.327496051788,894.124978780746 894.124978780746,928.327496051788 852.087103128433,928.327496051788
            C 852.087103128433,928.327496051788 852.087103128433,928.327496051788 852.087103128433,928.327496051788
            Z
        " />
        <path fill-rule="evenodd" fill="inherit" d="
            M 852.087103128433,928.327496051788
            C 852.087103128433,928.327496051788 77.9147815704346,928.327496051788 77.9147815704346,928.327496051788
            C 35.8750212192535,928.327496051788 1.67250394821167,894.124978780746 1.67250394821167,852.085218429565
            C 1.67250394821167,852.085218429565 1.67250394821167,77.9147815704346 1.67250394821167,77.9147815704346
            C 1.67250394821167,35.8750212192535 35.8750212192535,1.67250394821167 77.9147815704346,1.67250394821167
            C 77.9147815704346,1.67250394821167 852.087103128433,1.67250394821167 852.087103128433,1.67250394821167
            C 894.124978780746,1.67250394821167 928.327496051788,35.8750212192535 928.327496051788,77.9147815704346
            C 928.327496051788,77.9147815704346 928.327496051788,852.085218429565 928.327496051788,852.085218429565
            C 928.327496051788,894.124978780746 894.124978780746,928.327496051788 852.087103128433,928.327496051788
            Z
            M 860.107494592667,77.9147815704346
            C 860.107494592667,73.4918922185898 856.509992480278,69.8925054073334 852.087103128433,69.8925054073334
            C 852.087103128433,69.8925054073334 77.9147815704346,69.8925054073334 77.9147815704346,69.8925054073334
            C 73.4918922185898,69.8925054073334 69.8925054073334,73.4918922185898 69.8925054073334,77.9147815704346
            C 69.8925054073334,77.9147815704346 69.8925054073334,852.085218429565 69.8925054073334,852.085218429565
            C 69.8925054073334,856.50810778141 73.4918922185898,860.107494592667 77.9147815704346,860.107494592667
            C 77.9147815704346,860.107494592667 852.087103128433,860.107494592667 852.087103128433,860.107494592667
            C 856.509992480278,860.107494592667 860.107494592667,856.50810778141 860.107494592667,852.085218429565
            C 860.107494592667,852.085218429565 860.107494592667,77.9147815704346 860.107494592667,77.9147815704346
            Z
            M 630.119521021843,521.98204100132
            C 651.879533529282,495.102077722549 658.919493556023,486.782130002975 682.599459886551,461.822120547295
            C 717.159404754639,488.062062263489 728.039438724518,497.022086977959 764.519392848015,527.742068767548
            C 767.079423666,530.302044153214 767.719445228577,531.582031846046 767.719445228577,532.862074971199
            C 767.719445228577,534.142007231712 765.799435973167,535.422050356865 763.239405155182,535.422050356865
            C 763.239405155182,535.422050356865 497.63965845108,535.422050356865 497.63965845108,535.422050356865
            C 497.63965845108,535.422050356865 497.63965845108,609.662001729012 497.63965845108,609.662001729012
            C 497.63965845108,642.30193734169 497.63965845108,646.781921982765 498.279680013657,680.701900720596
            C 498.279680013657,683.261876106262 498.279680013657,686.461928486824 498.279680013657,687.741860747337
            C 498.279680013657,691.581934690475 498.279680013657,696.061863899231 498.279680013657,703.101879358292
            C 496.359670758247,729.341876506805 489.319710731506,740.221855044365 466.919676661491,751.101833581924
            C 450.91969192028,758.781870603561 418.279700875282,765.821830630302 400.359762310982,765.821830630302
            C 393.959768414497,765.821830630302 392.679725289345,764.54178750515 391.399793028831,754.941852092743
            C 390.119749903679,742.78188586235 386.27978682518,732.541873455048 379.879737496376,725.501857995987
            C 363.879808187485,707.581863999367 343.399783372879,699.901882410049 271.079896688461,685.821906924248
            C 271.079896688461,685.821906924248 271.719862818718,678.14192533493 271.719862818718,678.14192533493
            C 365.159795880318,683.901897668839 370.279802083969,683.901897668839 415.07975935936,685.181885361671
            C 422.11977481842,684.541919231415 424.679750204086,681.341922283173 424.679750204086,670.461888313293
            C 424.679750204086,670.461888313293 424.679750204086,535.422050356865 424.679750204086,535.422050356865
            C 424.679750204086,535.422050356865 223.079942464828,535.422050356865 223.079942464828,535.422050356865
            C 207.079957723618,535.422050356865 193.639948368073,536.702038049698 175.719954371452,540.542056560516
            C 175.719954371452,540.542056560516 170.599948167801,516.222068667412 170.599948167801,516.222068667412
            C 189.159963726997,520.702053308487 201.959951519966,521.98204100132 222.439920902252,521.98204100132
            C 222.439920902252,521.98204100132 424.679750204086,521.98204100132 424.679750204086,521.98204100132
            C 424.679750204086,521.98204100132 424.679750204086,500.862050056458 424.679750204086,500.862050056458
            C 424.679750204086,468.222114443779 424.03972864151,457.982102036476 420.839731693268,433.022148013115
            C 439.399691820145,434.942157268524 461.79967045784,438.142154216766 486.759624481201,441.982117295265
            C 514.279664754868,409.342181682587 514.279664754868,409.342181682587 543.719603419304,368.382187485695
            C 543.719603419304,368.382187485695 336.999844908714,368.382187485695 336.999844908714,368.382187485695
            C 315.879798531532,368.382187485695 306.279863119125,369.022209048271 287.719847559929,372.222205996513
            C 287.719847559929,372.222205996513 281.959875226021,349.182205796242 281.959875226021,349.182205796242
            C 301.79987847805,353.662245869637 317.159841656685,354.94217813015 336.359823346138,354.94217813015
            C 336.359823346138,354.94217813015 545.639668107033,354.94217813015 545.639668107033,354.94217813015
            C 562.2796189785,338.942248821259 567.399569749832,333.822242617607 585.319563746452,317.18223631382
            C 605.159566998482,331.902233362198 613.479570150375,337.662205696106 625.639536380768,347.262196540833
            C 643.559530377388,299.902263879776 643.559530377388,299.902263879776 649.319502711296,275.582275986671
            C 649.319502711296,275.582275986671 268.519921302795,275.582275986671 268.519921302795,275.582275986671
            C 269.159887433052,283.902279138565 269.159887433052,287.102276086807 269.159887433052,293.502269983292
            C 269.159887433052,318.462224006653 264.679847359657,337.662205696106 255.07991194725,355.582199692726
            C 243.559911847115,376.702190637589 226.279883980751,389.502178430557 208.999911546707,389.502178430557
            C 190.43995141983,389.502178430557 174.439966678619,366.462233662605 174.439966678619,338.942248821259
            C 174.439966678619,332.542254924774 176.359975934029,326.14226102829 180.199939012527,321.662220954895
            C 184.039957523346,317.822257876396 184.039957523346,317.822257876396 202.599917650223,305.022270083427
            C 234.599942564964,284.542300701141 247.399930357933,262.142322063446 251.239893436432,219.262318611145
            C 251.239893436432,219.262318611145 260.199862718582,219.262318611145 260.199862718582,219.262318611145
            C 264.679847359657,241.022331118584 265.95989048481,248.062291145325 267.879899740219,262.142322063446
            C 267.879899740219,262.142322063446 423.399707078934,262.142322063446 423.399707078934,262.142322063446
            C 423.399707078934,262.142322063446 423.399707078934,225.022346377373 423.399707078934,225.022346377373
            C 423.399707078934,211.582337021828 422.759740948677,199.422370791435 420.199710130692,173.182373642921
            C 436.839716434479,174.462416768074 450.279725790024,175.10243833065 457.959707379341,175.742349028587
            C 504.039652347565,178.942401409149 514.279664754868,180.862355232239 520.039692521095,186.622382998466
            C 521.319624781609,187.902370691299 522.599612474442,190.462401509285 523.239634037018,194.302364587784
            C 523.239634037018,196.86233997345 511.719689369202,203.262333869934 496.359670758247,209.022361636162
            C 496.359670758247,209.022361636162 496.359670758247,262.142322063446 496.359670758247,262.142322063446
            C 496.359670758247,262.142322063446 646.119505763054,262.142322063446 646.119505763054,262.142322063446
            C 663.399533629417,242.942340373993 669.159505963326,237.182312607765 687.079444527626,219.262318611145
            C 719.719491004944,244.222328066826 729.31948184967,251.902309656143 761.319395899773,278.782272934914
            C 765.799435973167,283.262257575989 767.719445228577,285.822288393974 767.719445228577,289.022285342216
            C 767.719445228577,290.942239165306 765.799435973167,293.502269983292 763.239405155182,295.422279238701
            C 760.679429769516,296.702266931534 754.919457435608,297.982254624367 747.879386544228,298.622276186943
            C 747.879386544228,298.622276186943 735.079454183578,299.902263879776 735.079454183578,299.902263879776
            C 730.599414110184,300.542285442352 725.479407906532,300.542285442352 720.999423265457,301.182251572609
            C 702.43946313858,312.062230110168 702.43946313858,312.062230110168 660.199536681175,338.302227258682
            C 656.359518170357,340.222236514091 651.239511966705,343.422233462334 633.959539532661,353.02222430706
            C 633.959539532661,353.02222430706 658.279527425766,370.94221830368 658.279527425766,370.94221830368
            C 662.759512066841,374.142215251923 665.959453582764,377.982178330421 665.959453582764,381.182175278664
            C 665.959453582764,383.102184534073 663.399533629417,386.302181482315 660.839502811432,387.582169175148
            C 658.919493556023,388.862156867981 652.519555091858,390.142199993134 644.839518070221,390.78216612339
            C 644.839518070221,390.78216612339 634.599561095238,391.422187685966 634.599561095238,391.422187685966
            C 631.399508714676,391.422187685966 628.199511766434,391.422187685966 624.999514818192,392.062209248543
            C 590.439569950104,409.982203245163 555.23960351944,426.622154116631 509.799680113792,446.46210193634
            C 521.319624781609,449.022132754326 525.159643292427,451.582108139992 525.159643292427,456.062092781067
            C 525.159643292427,461.822120547295 521.959646344185,463.742129802704 497.63965845108,471.422111392021
            C 497.63965845108,471.422111392021 497.63965845108,521.98204100132 497.63965845108,521.98204100132
            C 497.63965845108,521.98204100132 630.119521021843,521.98204100132 630.119521021843,521.98204100132
            Z
        " />
    </symbol>
</svg>
